<svg xmlns="http://www.w3.org/2000/svg" xmlns:xlink="http://www.w3.org/1999/xlink" style="isolation:isolate" viewBox="0 0 867 250" width="867" height="250">
  <defs>
    <clipPath id="_clipPath_wqrzwQNVOwKf6jSnqKbA9jtyhEZmIRof">
      <rect width="867" height="250"/>
    </clipPath>
    <style>
      @font-face {
        font-family: 'Bryant Pro Medium Alternate';
        src: url(../fonts/BryantPro-MediumAlternate.otf);
      }

      @font-face {
        font-family: 'Bryant Pro Light';
        src: url(../fonts/BryantPro-Light.otf);
      }

      .brand-text {
        opacity: 0;
        transform: translateX(-25px);
        animation: move .5s linear 4.5s forwards;
      }

      .brand-logo {
        left: 50%;
        transform: transitionX(-50%);
      }

      .brand-logo > path {
        fill-opacity: 0;
        stroke-width: 1;
        stroke: #666666;
        animation-name: dash, color;
        animation-timing-function: linear, linear;
        animation-fill-mode: forwards, forwards;
      }

      #logo-1-rect {
        stroke-dasharray: 346.244;
        stroke-dashoffset: 346.244;
        animation-duration: 3s, .5s;
        animation-delay: 1s, 4.5s;
      }

      #logo-1-circle {
        stroke-dasharray: 169.653;
        stroke-dashoffset: -169.653;
        animation-duration: 2s, .5s;
        animation-delay: 2s, 4.5s;
      }

      #logo-2-rect {
        stroke-dasharray: 440.255;
        stroke-dashoffset: -440.255;
        animation-duration: 4s, .5s;
        animation-delay: 0s, 4.5s;
      }

      #logo-2-circle {
        stroke-dasharray: 169.653;
        stroke-dashoffset: 169.653;
        animation-duration: 2s, .5s;
        animation-delay: 2s, 4.5s;
      }

      @keyframes dash {
        to {
          stroke-dashoffset: 0;
        }
      }

      @keyframes color {
        to {
          fill-opacity: 1;
          stroke-width: 0;
        }
      }

      @keyframes move {
        to {
          transform: translateX(0px);
          opacity: 1;
        }
      }
    </style>
  </defs>
  <g clip-path="url(#_clipPath_wqrzwQNVOwKf6jSnqKbA9jtyhEZmIRof)">
    <g style="isolation:isolate" class="brand-text">
      <g transform="matrix(1.021,0,0,1.021,836.302,130.813)">
        <text transform="matrix(1,0,0,1,0,30)" style="font-family:'Bryant Pro Light';font-weight:400;font-size:40px;font-style:normal;letter-spacing:1;fill:#666666;stroke:none;">®</text>
      </g>
      <g transform="matrix(1.021,0,0,1.021,285.5,73)">
        <text transform="matrix(1,0,0,1,0,72)" style="font-family:'Bryant Pro Medium Alternate';font-weight:400;font-size:96px;font-style:normal;fill:#666666;stroke:none;">morphis</text>
        <text transform="matrix(1,0,0,1,348.672,72)" style="font-family:'Bryant Pro Light';font-weight:400;font-size:96px;font-style:normal;fill:#666666;stroke:none;">tech</text>
      </g>
    </g>
    <g style="isolation:isolate" class="brand-logo">
      <path id="logo-2-rect" d=" M 240.1 162.808 L 186.125 162.808 L 186.125 147.311 L 153.839 176.781 C 142.903 186.802 125.889 186.059 115.868 175.123 L 115.868 175.123 C 105.847 164.187 106.59 147.172 117.526 137.152 L 194.161 66.929 C 205.097 56.908 222.111 57.651 232.132 68.587 L 232.132 68.587 C 236.097 72.914 239.477 78.193 240.1 83.615 L 240.1 162.808 Z " fill="rgb(117,169,44)" vector-effect="non-scaling-stroke" stroke-linejoin="miter" stroke-linecap="square" stroke-miterlimit="3"/>
      <path id="logo-2-circle" d=" M 186.2 163.436 C 186.2 148.535 198.298 136.436 213.2 136.436 C 228.102 136.436 240.2 148.535 240.2 163.436 C 240.2 178.338 228.102 190.436 213.2 190.436 C 198.298 190.436 186.2 178.338 186.2 163.436 Z " fill="rgb(78,112,41)" vector-effect="non-scaling-stroke" stroke-linejoin="miter" stroke-linecap="square" stroke-miterlimit="3"/>
      <path id="logo-1-rect" d=" M 66 175.836 L 141.746 106.248 C 152.682 96.227 153.425 79.213 143.404 68.277 L 143.404 68.277 C 133.383 57.341 116.369 56.598 105.433 66.619 L 28 137.586 L 66 175.836 L 66 175.836 Z " fill="rgb(156,213,32)" vector-effect="non-scaling-stroke" stroke-linejoin="miter" stroke-linecap="square" stroke-miterlimit="3"/>
      <path id="logo-1-circle" d=" M 27.904 175.932 C 17.365 165.393 17.365 148.28 27.904 137.741 C 38.444 127.202 55.556 127.202 66.096 137.741 C 76.635 148.28 76.635 165.393 66.096 175.932 C 55.556 186.471 38.444 186.471 27.904 175.932 Z " fill="rgb(203,228,56)" vector-effect="non-scaling-stroke" stroke-linejoin="miter" stroke-linecap="square" stroke-miterlimit="3"/>
    </g>
  </g>
</svg>