<?xml version="1.0" standalone="no"?><!-- Generator: Gravit.io --><svg xmlns="http://www.w3.org/2000/svg" xmlns:xlink="http://www.w3.org/1999/xlink" style="isolation:isolate" viewBox="0 0 250 250" width="250" height="250"><defs><clipPath id="_clipPath_IHWktf7tDktLkKbi2Cifz6zJIZ4I8jfJ"><rect width="250" height="250"/></clipPath></defs><g clip-path="url(#_clipPath_IHWktf7tDktLkKbi2Cifz6zJIZ4I8jfJ)"><g style="isolation:isolate"><path d=" M 235 162.808 L 181.025 162.808 L 181.025 147.311 L 148.739 176.781 C 137.803 186.802 120.789 186.059 110.768 175.123 L 110.768 175.123 C 100.747 164.187 101.49 147.172 112.426 137.152 L 189.061 66.929 C 199.997 56.908 217.011 57.651 227.032 68.587 L 227.032 68.587 C 230.997 72.914 234.377 78.193 235 83.615 L 235 162.808 Z " fill="rgb(117,169,44)" vector-effect="non-scaling-stroke" stroke-width="1" stroke="rgb(117,169,44)" stroke-linejoin="miter" stroke-linecap="square" stroke-miterlimit="3"/><path d=" M 181.1 163.436 C 181.1 148.535 193.198 136.436 208.1 136.436 C 223.002 136.436 235.1 148.535 235.1 163.436 C 235.1 178.338 223.002 190.436 208.1 190.436 C 193.198 190.436 181.1 178.338 181.1 163.436 Z " fill="rgb(78,112,41)" vector-effect="non-scaling-stroke" stroke-width="1" stroke="rgb(78,112,41)" stroke-linejoin="miter" stroke-linecap="square" stroke-miterlimit="3"/><path d=" M 60.9 175.836 L 136.646 106.248 C 147.582 96.227 148.325 79.213 138.304 68.277 L 138.304 68.277 C 128.283 57.341 111.269 56.598 100.333 66.619 L 22.9 137.586 L 60.9 175.836 L 60.9 175.836 Z " fill="rgb(156,213,32)" vector-effect="non-scaling-stroke" stroke-width="1" stroke="rgb(156,213,32)" stroke-linejoin="miter" stroke-linecap="square" stroke-miterlimit="3"/><path d=" M 22.804 175.932 C 12.265 165.393 12.265 148.28 22.804 137.741 C 33.344 127.202 50.456 127.202 60.996 137.741 C 71.535 148.28 71.535 165.393 60.996 175.932 C 50.456 186.471 33.344 186.471 22.804 175.932 Z " fill="rgb(203,228,56)" vector-effect="non-scaling-stroke" stroke-width="1" stroke="rgb(203,228,56)" stroke-linejoin="miter" stroke-linecap="square" stroke-miterlimit="3"/></g></g></svg>